HIERARCHY
ROOT hip
{
  OFFSET 0 0 0
  CHANNELS 6 Xposition Yposition Zposition Zrotation Yrotation Xrotation
  JOINT abdomen
  {
    OFFSET 0 20.6881 -0.73152
    CHANNELS 3 Zrotation Xrotation Yrotation
    JOINT chest
    {
      OFFSET 0 11.7043 -0.48768
      CHANNELS 3 Zrotation Xrotation Yrotation
      JOINT neck
      {
        OFFSET 0 22.1894 -2.19456
        CHANNELS 3 Zrotation Xrotation Yrotation
        JOINT head
        {
          OFFSET -0.24384 7.07133 1.2192
          CHANNELS 3 Zrotation Xrotation Yrotation
          JOINT leftEye
          {
            OFFSET 4.14528 8.04674 8.04672
            CHANNELS 3 Zrotation Xrotation Yrotation
            End Site
            {
              OFFSET 1 0 0
            }
          }
          JOINT rightEye
          {
            OFFSET -3.6576 8.04674 8.04672
            CHANNELS 3 Zrotation Xrotation Yrotation
            End Site
            {
              OFFSET 1 0 0
            }
          }
        }
      }
      JOINT rCollar
      {
        OFFSET -2.68224 19.2634 -4.8768
        CHANNELS 3 Zrotation Xrotation Yrotation
        JOINT rShldr
        {
          OFFSET -8.77824 -1.95073 1.46304
          CHANNELS 3 Zrotation Xrotation Yrotation
          JOINT rForeArm
          {
            OFFSET -28.1742 -1.7115 0.48768
            CHANNELS 3 Zrotation Xrotation Yrotation
            JOINT rHand
            {
              OFFSET -22.5879 0.773209 7.07136
              CHANNELS 3 Zrotation Xrotation Yrotation
              JOINT rThumb1
              {
                OFFSET -1.2192 -0.487915 3.41376
                CHANNELS 3 Zrotation Xrotation Yrotation
                JOINT rThumb2
                {
                  OFFSET -3.37035 -0.52449 3.41376
                  CHANNELS 3 Zrotation Xrotation Yrotation
                  End Site
                  {
                    OFFSET -1.78271 -1.18214 1.43049
                  }
                }
              }
              JOINT rIndex1
              {
                OFFSET -7.75947 0.938293 5.60832
                CHANNELS 3 Zrotation Xrotation Yrotation
                JOINT rIndex2
                {
                  OFFSET -2.54057 -0.884171 1.56538
                  CHANNELS 3 Zrotation Xrotation Yrotation
                  End Site
                  {
                    OFFSET -1.62519 -0.234802 1.16502
                  }
                }
              }
              JOINT rMid1
              {
                OFFSET -8.24714 1.18213 3.41376
                CHANNELS 3 Zrotation Xrotation Yrotation
                JOINT rMid2
                {
                  OFFSET -3.10165 -0.590103 1.0647
                  CHANNELS 3 Zrotation Xrotation Yrotation
                  End Site
                  {
                    OFFSET -2.48547 -0.328903 0.83742
                  }
                }
              }
              JOINT rRing1
              {
                OFFSET -8.82822 0.546677 1.51678
                CHANNELS 3 Zrotation Xrotation Yrotation
                JOINT rRing2
                {
                  OFFSET -2.60934 -0.819778 -0.0198488
                  CHANNELS 3 Zrotation Xrotation Yrotation
                  End Site
                  {
                    OFFSET -2.33842 -0.294052 0.168128
                  }
                }
              }
              JOINT rPinky1
              {
                OFFSET -8.27202 -0.0477905 -0.4584
                CHANNELS 3 Zrotation Xrotation Yrotation
                JOINT rPinky2
                {
                  OFFSET -1.82734 -0.647385 -0.700984
                  CHANNELS 3 Zrotation Xrotation Yrotation
                  End Site
                  {
                    OFFSET -1.69225 -0.51767 -0.607171
                  }
                }
              }
            }
          }
        }
      }
      JOINT lCollar
      {
        OFFSET 2.68224 19.2634 -4.8768
        CHANNELS 3 Zrotation Xrotation Yrotation
        JOINT lShldr
        {
          OFFSET 8.77824 -1.95073 1.46304
          CHANNELS 3 Zrotation Xrotation Yrotation
          JOINT lForeArm
          {
            OFFSET 28.1742 -1.7115 0.48768
            CHANNELS 3 Zrotation Xrotation Yrotation
            JOINT lHand
            {
              OFFSET 22.5879 0.773209 7.07136
              CHANNELS 3 Zrotation Xrotation Yrotation
              JOINT lThumb1
              {
                OFFSET 1.2192 -0.487915 3.41376
                CHANNELS 3 Zrotation Xrotation Yrotation
                JOINT lThumb2
                {
                  OFFSET 3.37035 -0.52449 3.41376
                  CHANNELS 3 Zrotation Xrotation Yrotation
                  End Site
                  {
                    OFFSET 1.78271 -1.18214 1.43049
                  }
                }
              }
              JOINT lIndex1
              {
                OFFSET 7.75947 0.938293 5.60832
                CHANNELS 3 Zrotation Xrotation Yrotation
                JOINT lIndex2
                {
                  OFFSET 2.54057 -0.884171 1.56538
                  CHANNELS 3 Zrotation Xrotation Yrotation
                  End Site
                  {
                    OFFSET 1.62519 -0.234802 1.16502
                  }
                }
              }
              JOINT lMid1
              {
                OFFSET 8.24714 1.18213 3.41376
                CHANNELS 3 Zrotation Xrotation Yrotation
                JOINT lMid2
                {
                  OFFSET 3.10165 -0.590103 1.0647
                  CHANNELS 3 Zrotation Xrotation Yrotation
                  End Site
                  {
                    OFFSET 2.48547 -0.328903 0.83742
                  }
                }
              }
              JOINT lRing1
              {
                OFFSET 8.82822 0.546677 1.51678
                CHANNELS 3 Zrotation Xrotation Yrotation
                JOINT lRing2
                {
                  OFFSET 2.60934 -0.819778 -0.0198488
                  CHANNELS 3 Zrotation Xrotation Yrotation
                  End Site
                  {
                    OFFSET 2.33842 -0.294052 0.168128
                  }
                }
              }
              JOINT lPinky1
              {
                OFFSET 8.27202 -0.0477905 -0.4584
                CHANNELS 3 Zrotation Xrotation Yrotation
                JOINT lPinky2
                {
                  OFFSET 1.82734 -0.647385 -0.700984
                  CHANNELS 3 Zrotation Xrotation Yrotation
                  End Site
                  {
                    OFFSET 1.69225 -0.51767 -0.607171
                  }
                }
              }
            }
          }
        }
      }
    }
  }
  JOINT rButtock
  {
    OFFSET -8.77824 4.35084 1.2192
    CHANNELS 3 Zrotation Xrotation Yrotation
    JOINT rThigh
    {
      OFFSET 0 -1.70687 -2.19456
      CHANNELS 3 Zrotation Xrotation Yrotation
      JOINT rShin
      {
        OFFSET 0 -36.8199 0.73152
        CHANNELS 3 Zrotation Xrotation Yrotation
        JOINT rFoot
        {
          OFFSET 0.73152 -45.1104 -5.12064
          CHANNELS 3 Zrotation Xrotation Yrotation
          End Site
          {
            OFFSET -1.1221 -3.69964 12.103
          }
        }
      }
    }
  }
  JOINT lButtock
  {
    OFFSET 8.77824 4.35084 1.2192
    CHANNELS 3 Zrotation Xrotation Yrotation
    JOINT lThigh
    {
      OFFSET 0 -1.70687 -2.19456
      CHANNELS 3 Zrotation Xrotation Yrotation
      JOINT lShin
      {
        OFFSET 0 -36.8199 0.73152
        CHANNELS 3 Zrotation Xrotation Yrotation
        JOINT lFoot
        {
          OFFSET -0.73152 -45.1104 -5.12064
          CHANNELS 3 Zrotation Xrotation Yrotation
          End Site
          {
            OFFSET 1.1221 -3.69964 12.103
          }
        }
      }
    }
  }
}
MOTION
Frames:	4
Frame Time:	0.00833333
31.520300000000002 80.2288 -5.33467 -0.0 0.0 -0.0 -0.0 -4.771896 -180.0 -0.0 -4.771896 -180.0 -8.004821 8.256846 -69.161918 10.546126 4.563212 69.319265 0.0 -0.0 -0.0 0.0 -0.0 -0.0 -143.620413 38.233348 148.080496 -153.748773 -14.787283 171.174154 -173.821798 -0.082815 145.008554 165.105283 -30.477873 141.154575 88.928376 -50.831327 37.599672 -160.698331 -27.932922 126.865518 -145.338335 -6.264511 118.677783 -173.609487 -54.034434 114.631789 -1.40361 3.995171 0.811243 -173.209961 -25.744898 144.536714 0.000273 0.036338 0.011416 -165.737895 -0.980497 171.904778 -145.173549 12.06758 -141.82295 -145.980353 14.502864 -142.397872 155.504155 -3.514523 -161.838528 -27.143929 -27.3322 -16.571891 -1.810422 1.591325 33.223246 -166.618531 -27.02784 -142.003646 174.193348 -11.857374 -89.870273 -174.344646 -21.630674 -97.81272 -5.921393 -10.174578 2.968574 91.723188 45.417524 -63.516614 -7.904304 -24.807577 3.013399 -175.99929 -48.098261 -139.498653 70.641094 72.965227 -88.425717 160.39774 2.48011 173.70932 148.242325 22.397232 144.472132 21.153173 -38.086835 25.035281 -180.0 75.749642 -0.0 -180.0 75.749642 -0.0 -4.911375 3.484732 -54.436469 112.327807 24.763046 -26.691453 -180.0 75.749642 -0.0 -180.0 75.749642 -0.0 4.911375 3.484732 54.436469 -47.107355 31.234297 -25.873589
30.528 79.8647 -5.8273 -0.0 0.0 -0.0 -0.0 0.0 -0.0 0.0 0.0 0.0 -2.189902 0.70575 -13.10212 2.292863 -0.190556 13.119422 0.0 -0.0 -0.0 0.0 -0.0 -0.0 -82.87739 68.300155 86.000637 17.188319 0.071656 -0.891204 -29.917389 -83.32327 -34.536625 1.269957 -4.032507 0.182874 176.505527 -20.695006 88.628526 44.133531 -73.330046 31.563463 -170.598503 -49.115817 121.024777 111.345093 -65.71157 45.645455 -160.673322 -6.667841 143.245105 13.021157 -19.825367 -1.20826 -145.119721 0.310087 -179.225753 -147.065338 46.006869 175.559956 -146.206697 15.40572 -142.730862 -151.017178 29.873042 -145.001455 155.460052 -3.227798 -161.777534 -17.782403 2.238453 -16.330729 88.259427 -76.334822 114.137309 -84.78106 -70.726078 -69.505505 -83.25393 -50.258079 -33.616048 140.574064 12.869995 -105.445123 50.386399 40.826202 -40.02487 84.518648 58.997007 -57.938211 154.142656 11.63468 -139.428942 5.774673 30.077913 -6.656043 -0.004672 0.917785 -0.288305 166.152645 -53.631741 -179.01042 -7.650978 23.805696 -6.773614 163.203258 53.761515 148.056111 -180.0 75.749642 -0.0 -180.0 73.473292 -180.0 -4.055723 -2.993391 -143.675094 80.523419 -58.855205 -17.875902 -180.0 75.749642 -0.0 -180.0 73.473292 -180.0 3.340447 -2.663598 150.50614 -59.838151 -44.02529 27.932973
29.596 79.618 -6.26096 -0.0 0.0 -0.0 -0.0 -4.771896 -180.0 -0.0 -4.771896 -180.0 12.005674 11.259609 108.921114 -6.73077 14.992858 -109.222195 -0.0 -0.0 0.0 -0.0 -0.0 0.0 -9.651699 34.836178 11.199233 -65.589408 89.2499 74.767105 171.464461 -1.171819 175.43145 -21.699488 51.449658 8.618773 71.831195 -48.263725 25.791675 -26.353882 -81.667695 -66.143664 45.282556 -63.865437 4.306423 76.670024 -51.037792 27.00183 3.77609 -11.559351 -1.812841 4.243896 -12.498759 -0.531271 0.000474 0.063775 0.020036 -6.961735 44.352175 8.750411 -156.864532 55.54159 -150.329136 -25.926671 -39.535665 -28.69102 80.1661 68.371792 -83.260848 -17.024001 0.106223 1.031405 12.096017 -13.712264 20.577079 -46.874883 -65.026935 -33.675044 -178.851051 -18.544547 -89.079181 159.343429 2.4448 -87.70602 0.327682 0.529888 -0.186114 -60.859892 -56.096623 -24.480138 -6.908911 -21.623998 2.809719 10.733707 25.438118 -7.200007 75.673382 -72.116249 92.828895 76.07385 72.916175 -94.059537 59.993042 -51.221624 58.614485 147.067934 12.815333 145.607956 -180.0 75.749642 -0.0 -180.0 75.749642 -0.0 -5.266417 4.296242 -62.140379 144.904659 0.197508 -52.526145 -180.0 75.749642 -0.0 -180.0 75.749642 -0.0 5.266417 4.296242 62.140379 58.747092 -71.280512 -46.024703
28.6802 79.5021 -6.687850000000001 0.0 -0.0 -0.0 -0.0 0.0 -0.0 -0.0 -0.0 0.0 11.359575 6.157081 79.425429 -8.145262 10.039281 -79.321748 -0.0 0.0 -0.0 -0.0 0.0 -0.0 -142.973735 39.431617 147.390037 -151.980852 -2.335175 170.955575 -172.223701 -8.185694 146.18139 162.375831 -36.043241 139.458993 0.947942 -0.938146 -0.138058 -67.14459 28.505067 60.948786 -172.896918 -51.894009 120.180804 -78.45066 50.148637 71.368488 -89.835461 60.702148 81.262754 -171.045893 -34.710726 147.358396 0.004872 1.771856 0.556622 -164.43848 -63.553599 -178.127224 12.988419 44.344312 10.761472 14.062225 42.028026 5.6788 143.620413 38.233348 -148.080496 151.974066 -2.404821 -170.678387 174.866595 -15.393641 -145.273389 -166.312629 -27.746805 -141.837821 0.441471 0.435329 -0.069465 122.355164 -13.738637 -109.860411 151.353117 -17.158427 -121.133109 -24.274468 -5.704364 11.74772 153.32078 13.628946 -138.862343 -171.273495 -65.596444 -133.91034 0.000142 -0.018512 0.005816 -0.980155 -18.298307 2.157058 12.006991 -23.632071 11.402645 155.487593 37.621596 149.71696 -0.0 0.0 0.0 -0.0 -0.0 -0.0 -4.919407 3.500227 -54.588129 -11.751648 -20.616391 60.552132 -0.0 0.0 0.0 -0.0 -0.0 -0.0 4.919407 3.500227 54.588129 -79.487002 34.979434 0.554566
